<svg width="107" height="82" viewBox="0 0 107 82" fill="none" xmlns="http://www.w3.org/2000/svg">
<g id="logo" clip-path="url(#clip0_1092_298)">
<path id="Vector" d="M3.99396 59.7669L5.30412 58.7606L5.26083 52.1466L3.9449 52.0463L3.99396 59.7669Z" fill="#A25100"/>
<path id="Vector_2" d="M21.1963 27.944L23.4934 30.3264L30.578 26.1607C34.8894 23.6264 34.1795 26.1837 38.211 27.0925C37.1577 27.3391 36.1996 27.6487 34.3815 27.3333C35.204 29.5982 37.2558 30.3751 39.5587 29.8447C41.0247 24.9194 51.6935 32.4709 55.2113 26.1149C50.6027 27.3161 47.2869 25.0684 44.7271 25.9658C45.6275 25.1716 46.6433 24.3918 47.4427 24.518C47.1657 23.8013 46.5683 23.7697 45.9421 24.0048C44.5627 23.0645 42.8571 24.5696 41.5239 24.9251C39.4403 25.2949 38.4649 23.354 36.4189 22.7262L45.1716 17.58C49.0414 15.3037 50.2939 15.3553 53.8925 18.9303L64.492 29.4606C61.5543 29.2198 58.1288 29.7272 53.9444 31.7197C63.153 30.7421 66.8526 34.1222 70.9909 35.9169L76.0815 30.8596C78.3295 28.6263 78.8691 28.5919 82.2253 30.5185L97.4451 39.2483C95.5376 38.6577 93.6849 38.1101 92.1381 37.9066C76.5807 35.8424 75.1436 44.6897 56.1261 43.9787C63.1473 47.3158 68.3186 47.462 72.6473 46.6421C78.6325 45.5097 80.5314 43.1502 86.1327 43.2935C83.2325 43.9759 80.6179 45.4007 78.8287 48.0985C92.1006 43.6204 96.5505 47.6226 106.994 42.1066L80.2341 15.5216C78.3872 13.6867 77.8937 13.6753 76.22 15.3352L71.5565 19.9682L53.8982 2.42541C50.695 -0.756883 50.0717 -0.754016 47.1628 2.13872L29.5334 19.6041L28.3588 20.768L22.6161 14.9338C21.5022 13.8272 20.2439 13.8473 19.3493 14.865L1.85558 34.7443L16.7463 27.405C19.2714 26.1607 19.4186 26.1005 21.1963 27.944ZM77.8158 21.7571C78.7364 20.7766 79.3626 20.7193 80.7507 22.0983L83.4605 25.0312L80.5862 23.3397C79.1404 22.4882 78.9182 22.4825 77.8937 22.7978L76.4075 23.2537L77.8158 21.7543V21.7571ZM44.9349 11.0835L48.8885 7.25906C50.3718 5.78546 50.6142 5.78259 52.1379 7.59736L61.2253 17.7291C61.8746 18.3742 61.7217 18.5003 61.0955 17.9671L51.1683 9.54401L49.4974 11.3043C49.0587 11.7659 49.0097 11.7257 49.0097 11.2326L49.001 9.501L45.3591 11.3731C43.9884 12.0784 43.9595 12.0239 44.932 11.0835H44.9349Z" fill="#A25100"/>
<path id="Vector_3" d="M19.1243 37.8177C20.4719 41.7798 22.971 43.3051 26.1223 43.5889C33.6774 44.2712 34.2026 41.0459 44.1846 43.91C47.3186 44.8102 50.9345 46.0258 55.0728 47.27C33.4263 31.2783 35.8244 43.5459 19.1243 37.8206V37.8177Z" fill="#A25100"/>
<path id="Vector_4" d="M67.3403 39.4547C59.2774 40.3893 55.1709 37.9524 50.9576 36.0258C46.6866 34.0706 41.6711 31.9232 33.585 35.7793C42.0953 34.8762 45.515 38.0011 49.3416 39.6582C53.5981 41.5017 59.2745 43.0641 67.3403 39.4547Z" fill="#A25100"/>
<path id="Vector_5" d="M64.9855 70.2771L65.7935 69.1877L57.5719 63.0668L56.3973 63.5599V70.171H57.7017V65.6355L57.442 64.5461L58.1981 65.4263L64.9855 70.2771Z" fill="#A25100"/>
<path id="Vector_6" d="M9.02103 62.4304C9.28076 62.3788 9.62128 62.3272 9.93583 62.2239V70.1711H11.2402V61.2119L10.7439 61.0055L9.93583 60.7991C7.84651 61.5502 4.32294 61.9401 2.81077 60.306L2.75883 51.9689L1.4025 51.8657C1.4025 54.4058 1.4025 56.9173 1.37653 59.4545C1.37653 59.7928 1.42847 60.1512 1.55833 60.4866C2.65494 62.9722 6.77876 62.9206 9.02392 62.4304H9.02103Z" fill="#A25100"/>
<path id="Vector_7" d="M13.774 70.171C13.774 64.1103 13.7999 58.2331 13.7999 52.1753H12.4955L12.4696 70.171H13.774Z" fill="#A25100"/>
<path id="Vector_8" d="M22.0736 64.0014L19.6466 69.655L20.8471 70.1739L23.0663 64.9618H27.242L29.7209 70.1997C30.1134 70.0191 30.503 69.8614 30.9214 69.6808L28.2838 64.1046C28.102 63.8982 27.8654 63.6631 27.6057 63.6631H22.593C22.3852 63.6631 22.1486 63.8179 22.0707 64.0014H22.0736Z" fill="#A25100"/>
<path id="Vector_9" d="M55.3527 52.0721H54.0483V70.1711H55.3527V52.0721Z" fill="#A25100"/>
<path id="Vector_10" d="M33.637 69.7583L25.675 52.0721H24.4745L16.931 69.7324L18.1315 70.2514L24.4226 55.3404L25.0748 53.2648L25.7529 55.3404L32.4365 70.2772C32.829 70.0965 33.2185 69.9389 33.637 69.7583Z" fill="#A25100"/>
<path id="Vector_11" d="M97.4566 54.9734V69.4228L98.0569 70.1739H100.746L101.451 69.526V52.7745L100.746 52.1266H91.9245L91.3243 52.8777V64.2967C91.3243 65.4894 91.4282 66.7307 90.8279 67.7944C89.7833 68.6458 88.375 68.62 87.0706 68.7233V70.0191C87.9335 69.9417 88.7415 69.9159 89.5755 69.7353C92.6027 69.139 92.6287 67.0174 92.6287 64.4028V53.4253H100.146V68.8809H98.7639V54.9505L97.4595 54.9763L97.4566 54.9734Z" fill="#A25100"/>
<path id="Vector_12" d="M86.0231 69.7583L78.0611 52.0721H76.8606L69.3171 69.7324L70.5176 70.2514L76.8087 55.3404L77.4609 53.2648L78.139 55.3404L84.8226 70.2772C85.215 70.0965 85.6046 69.9389 86.0231 69.7583Z" fill="#A25100"/>
<path id="Vector_13" d="M42.6407 70.171V55.2859C42.6407 54.9476 42.381 54.5348 42.0405 54.5348H35.7234V55.8306H41.3363V70.171H42.6407Z" fill="#A25100"/>
<path id="Vector_14" d="M50.9143 52.0721H35.7234V53.368H50.9143V52.0721Z" fill="#A25100"/>
<path id="Vector_15" d="M43.9999 55.2887V70.1739H45.3043V55.8335H50.9172V54.5376H44.6002C44.2596 54.5376 43.9999 54.9533 43.9999 55.2887Z" fill="#A25100"/>
<path id="Vector_16" d="M67.2307 67.3471L58.3568 60.6299L57.7046 60.3461L58.3828 59.9304L65.2481 53.0325L64.4401 52.0205L56.5301 59.853V60.7876L66.4227 68.3592C66.6824 68.0209 66.945 67.6854 67.2307 67.3471Z" fill="#A25100"/>
<path id="Vector_17" d="M74.4596 64.0014L72.0327 69.655L73.2332 70.1739L75.4523 64.9618H79.6281L82.107 70.1997C82.4995 70.0191 82.8891 69.8614 83.3075 69.6808L80.6699 64.1046C80.4881 63.8982 80.2514 63.6631 79.9917 63.6631H74.9791C74.7713 63.6631 74.5347 63.8179 74.4567 64.0014H74.4596Z" fill="#A25100"/>
<path id="Vector_18" d="M78.696 59.8271L77.5561 57.2383L76.4162 59.8271L75.2763 62.4131H77.5561H79.8359L78.696 59.8271Z" fill="#A25100"/>
<path id="Vector_19" d="M26.3186 59.8271L25.1787 57.2383L24.0388 59.8271L22.896 62.4131H25.1787H27.4585L26.3186 59.8271Z" fill="#A25100"/>
<path id="Vector_20" d="M102.824 71.7307H0V73.0094H102.824V71.7307Z" fill="#A25100"/>
<path id="Vector_21" d="M13.0381 77.5477C13.4046 77.3069 13.6268 77.0775 13.7047 76.8596C13.7855 76.6446 13.823 76.421 13.823 76.1945C13.823 75.6813 13.6441 75.2742 13.2891 74.9703C12.9342 74.6693 12.4927 74.5173 11.9703 74.5173C11.751 74.5173 11.5144 74.5517 11.2547 74.6177C10.9949 74.6836 10.6746 74.8929 10.2879 75.2369L11.0065 76.0311C11.2951 75.7644 11.575 75.6297 11.8491 75.6297C12.08 75.6297 12.2647 75.6956 12.4032 75.8275C12.5417 75.9594 12.6139 76.14 12.6139 76.3665C12.6139 76.6131 12.5302 76.8109 12.3628 76.96C12.1954 77.109 11.953 77.1807 11.6298 77.1807H11.3701V78.2615H11.6298C12.1723 78.2615 12.5302 78.3476 12.7033 78.5196C12.8765 78.6916 12.9631 78.9095 12.9631 79.1732C12.9631 79.437 12.8736 79.6549 12.6976 79.8183C12.5215 79.9788 12.2878 80.0591 11.9992 80.0591C11.5663 80.0591 11.1883 79.8355 10.8651 79.3882L9.93295 80.0677C10.3023 80.5408 10.6429 80.8475 10.9574 80.9909C11.272 81.1342 11.624 81.2059 12.0194 81.2059C12.6456 81.2059 13.1593 81.0281 13.5604 80.6669C13.9587 80.3085 14.1607 79.8326 14.1607 79.242C14.1607 78.4422 13.7855 77.8745 13.0381 77.5448V77.5477Z" fill="#A25100"/>
<path id="Vector_22" d="M18.3422 74.5287C17.7448 74.5287 17.185 74.6778 16.6684 74.976C16.149 75.2741 15.7421 75.6784 15.4477 76.1887C15.1505 76.699 15.0033 77.2581 15.0033 77.8659C15.0033 78.7747 15.3207 79.5573 15.9556 80.2167C16.5905 80.8761 17.3899 81.2058 18.3508 81.2058C19.3118 81.2058 20.0477 80.8847 20.6912 80.2425C21.3348 79.6003 21.6551 78.8148 21.6551 77.8859C21.6551 76.957 21.329 76.1543 20.6768 75.5035C20.0246 74.8527 19.2454 74.5259 18.3422 74.5259V74.5287ZM19.8284 79.414C19.4215 79.8297 18.9309 80.0361 18.3508 80.0361C17.8401 80.0361 17.387 79.8756 16.9916 79.5573C16.4837 79.1474 16.2298 78.5912 16.2298 77.8888C16.2298 77.2581 16.4318 76.7363 16.8358 76.3292C17.2398 75.9192 17.7362 75.7157 18.3306 75.7157C18.9251 75.7157 19.4157 75.9249 19.8255 76.3435C20.2353 76.7621 20.4402 77.2753 20.4402 77.8802C20.4402 78.4851 20.2382 78.9983 19.8313 79.414H19.8284Z" fill="#A25100"/>
<path id="Vector_23" d="M24.5525 74.6893L22.0822 81.0482H23.375L25.1758 76.3722L26.9477 81.0482H28.2492L25.7876 74.6893H24.5525Z" fill="#A25100"/>
<path id="Vector_24" d="M32.0094 74.5287C31.412 74.5287 30.8522 74.6778 30.3356 74.976C29.8162 75.2741 29.4093 75.6784 29.1149 76.1887C28.8177 76.699 28.6705 77.2581 28.6705 77.8659C28.6705 78.7747 28.9879 79.5573 29.6228 80.2167C30.2577 80.8761 31.0571 81.2058 32.018 81.2058C32.979 81.2058 33.7149 80.8847 34.3584 80.2425C35.002 79.6003 35.3223 78.8148 35.3223 77.8859C35.3223 76.957 34.9962 76.1543 34.344 75.5035C33.6918 74.8527 32.9126 74.5259 32.0094 74.5259V74.5287ZM33.4956 79.414C33.0887 79.8297 32.5981 80.0361 32.018 80.0361C31.5073 80.0361 31.0542 79.8756 30.6588 79.5573C30.1509 79.1474 29.897 78.5912 29.897 77.8888C29.897 77.2581 30.099 76.7363 30.503 76.3292C30.907 75.9192 31.4034 75.7157 31.9978 75.7157C32.5923 75.7157 33.0829 75.9249 33.4927 76.3435C33.9025 76.7621 34.1074 77.2753 34.1074 77.8802C34.1074 78.4851 33.9054 78.9983 33.4985 79.414H33.4956Z" fill="#A25100"/>
<path id="Vector_25" d="M35.8389 75.882H36.9759V81.0482H38.211V75.882H39.3769V74.6893H35.8389V75.882Z" fill="#A25100"/>
<path id="Vector_26" d="M42.1645 74.6893L39.6972 81.0482H40.964L41.4835 79.738H44.0951L44.5973 81.0482H45.8641L43.4026 74.6893H42.1674H42.1645ZM41.9308 78.5568L42.7908 76.3751L43.645 78.5568H41.9337H41.9308Z" fill="#A25100"/>
<path id="Vector_27" d="M48.2161 74.7381C48.0891 74.7495 47.916 74.7925 47.7024 74.8699C47.486 74.9474 47.2955 75.0649 47.1339 75.2255C46.9694 75.386 46.8453 75.5809 46.7559 75.8103C46.6664 76.0397 46.6231 76.312 46.6231 76.6216C46.6231 77.4961 47.0416 78.0522 47.8813 78.2902L46.4326 81.0482H47.763L49.0501 78.4909H49.356V81.0482H50.5738V74.6893H49.2838C48.7009 74.7094 48.3459 74.7266 48.219 74.7381H48.2161ZM49.3531 77.3097H48.9722C48.6028 77.3097 48.3344 77.2581 48.1641 77.1549C47.9968 77.0517 47.9131 76.8682 47.9131 76.6073C47.9131 76.4324 47.9564 76.2833 48.04 76.1629C48.1237 76.0425 48.2334 75.9651 48.3661 75.9307C48.4989 75.8934 48.7182 75.8762 49.0212 75.8762H49.356V77.3097H49.3531Z" fill="#A25100"/>
<path id="Vector_28" d="M57.8374 74.6893H56.6051L54.5533 79.91H53.8463V81.9971H55.0266V81.0453H59.4303V81.9971H60.6106V79.91H59.8978L57.8403 74.6893H57.8374ZM55.8289 79.91L57.2314 76.3751L58.6281 79.91H55.8289Z" fill="#A25100"/>
<path id="Vector_29" d="M64.417 74.5287C63.8196 74.5287 63.2627 74.6778 62.7432 74.976C62.2238 75.2741 61.8169 75.6784 61.5225 76.1887C61.2253 76.699 61.0781 77.2581 61.0781 77.8659C61.0781 78.7747 61.3956 79.5573 62.0304 80.2167C62.6653 80.8761 63.4647 81.2058 64.4257 81.2058C65.3866 81.2058 66.1225 80.8847 66.7661 80.2425C67.4096 79.6003 67.7299 78.8148 67.7299 77.8859C67.7299 76.957 67.4038 76.1543 66.7516 75.5035C66.0994 74.8527 65.3203 74.5259 64.417 74.5259V74.5287ZM65.9032 79.414C65.4963 79.8297 65.0057 80.0361 64.4257 80.0361C63.9149 80.0361 63.4618 79.8756 63.0664 79.5573C62.5585 79.1474 62.3046 78.5912 62.3046 77.8888C62.3046 77.2581 62.5066 76.7363 62.9106 76.3292C63.3146 75.9192 63.811 75.7157 64.4055 75.7157C64.9999 75.7157 65.4905 75.9249 65.9003 76.3435C66.3101 76.7621 66.515 77.2753 66.515 77.8802C66.515 78.4851 66.3101 78.9983 65.9061 79.414H65.9032Z" fill="#A25100"/>
<path id="Vector_30" d="M70.6244 74.6893L68.1541 81.0482H69.447L71.2506 76.3722L73.0225 81.0482H74.3211L71.8624 74.6893H70.6244Z" fill="#A25100"/>
<path id="Vector_31" d="M76.2748 78.8005V74.6893H75.057V81.0482H76.1161L78.5026 77.066V81.0482H79.7204V74.6893H78.6931L76.2748 78.8005Z" fill="#A25100"/>
<path id="Vector_32" d="M84.5513 77.089H82.4129V74.6893H81.1778V81.0482H82.4129V78.2587H84.5513V81.0482H85.7807V74.6893H84.5513V77.089Z" fill="#A25100"/>
<path id="Vector_33" d="M89.1946 74.6893L86.7272 81.0482H87.9941L88.5135 79.738H91.1252L91.6244 81.0482H92.8913L90.4297 74.6893H89.1946ZM88.9608 78.5568L89.8208 76.3751L90.675 78.5568H88.9637H88.9608Z" fill="#A25100"/>
</g>
<defs>
<clipPath id="clip0_1092_298">
<rect width="107" height="82" fill="white"/>
</clipPath>
</defs>
</svg>
