<svg width="110" height="85" viewBox="0 0 110 85" fill="none" xmlns="http://www.w3.org/2000/svg">
<g id="logo" clip-path="url(#clip0_1092_3722)">
<path id="Vector" d="M4.10595 61.9536L5.45284 60.9104L5.40834 54.0545L4.05551 53.9504L4.10595 61.9536Z" fill="white"/>
<path id="Vector_2" d="M21.7905 28.9663L24.1521 31.4359L31.4353 27.1179C35.8676 24.4908 35.1378 27.1416 39.2823 28.0837C38.1995 28.3393 37.2145 28.6602 35.3455 28.3333C36.191 30.6811 38.3003 31.4864 40.6678 30.9367C42.1749 25.8311 53.1428 33.6588 56.7593 27.0703C52.0214 28.3155 48.6126 25.9856 45.9812 26.9158C46.9068 26.0926 47.9511 25.2843 48.7728 25.415C48.488 24.6721 47.8739 24.6394 47.2302 24.8831C45.8121 23.9083 44.0587 25.4685 42.6881 25.837C40.5461 26.2204 39.5434 24.2085 37.44 23.5576L46.438 18.2232C50.4164 15.8636 51.704 15.9171 55.4035 19.6229L66.3002 30.5384C63.2801 30.2888 59.7586 30.8148 55.4569 32.8802C64.9237 31.8668 68.727 35.3706 72.9813 37.231L78.2146 31.9887C80.5256 29.6736 81.0804 29.638 84.5307 31.635L100.177 40.6842C98.2162 40.072 96.3115 39.5044 94.7214 39.2934C78.7278 37.1537 77.2504 46.3247 57.6997 45.5877C64.9177 49.0469 70.2341 49.1985 74.6842 48.3485C80.8372 47.1747 82.7892 44.7289 88.5476 44.8775C85.5661 45.5848 82.8783 47.0618 81.0389 49.8582C94.6828 45.2163 99.2575 49.3649 109.994 43.6471L82.4837 16.0894C80.585 14.1875 80.0777 14.1756 78.357 15.8963L73.5628 20.6987L55.4094 2.51417C52.1163 -0.78455 51.4755 -0.781578 48.4851 2.21699L30.3614 20.3213L29.1539 21.5279L23.2502 15.4802C22.105 14.3331 20.8115 14.3539 19.8918 15.4089L1.90759 36.0155L17.2159 28.4076C19.8117 27.1179 19.963 27.0555 21.7905 28.9663ZM79.9976 22.5532C80.9439 21.5368 81.5877 21.4774 83.0147 22.9068L85.8005 25.947L82.8456 24.1936C81.3593 23.311 81.1309 23.305 80.0777 23.6319L78.5498 24.1044L79.9976 22.5502V22.5532ZM46.1948 11.4891L50.2592 7.52466C51.7841 5.99714 52.0333 5.99417 53.5997 7.87533L62.9419 18.3777C63.6094 19.0464 63.4522 19.1772 62.8084 18.6244L52.6029 9.8932L50.8852 11.7179C50.4342 12.1964 50.3838 12.1548 50.3838 11.6436L50.3749 9.84862L46.6309 11.7892C45.2217 12.5203 45.192 12.4638 46.1918 11.4891H46.1948Z" fill="white"/>
<path id="Vector_3" d="M19.6604 39.2013C21.0459 43.3083 23.6151 44.8894 26.8547 45.1836C34.6216 45.8909 35.1616 42.5476 45.4234 45.5164C48.6453 46.4496 52.3626 47.7096 56.6169 48.9994C34.3635 32.4226 36.8288 45.139 19.6604 39.2043V39.2013Z" fill="white"/>
<path id="Vector_4" d="M69.2284 40.8982C60.9394 41.8671 56.7177 39.341 52.3863 37.3439C47.9956 35.3172 42.8394 33.0913 34.5267 37.0884C43.2755 36.1522 46.7911 39.3915 50.725 41.1092C55.1009 43.0201 60.9364 44.6398 69.2284 40.8982Z" fill="white"/>
<path id="Vector_5" d="M66.8075 72.8483L67.6382 71.719L59.186 65.3741L57.9786 65.8853V72.7383H59.3195V68.0369L59.0525 66.9076L59.8298 67.82L66.8075 72.8483Z" fill="white"/>
<path id="Vector_6" d="M9.27397 64.7143C9.54097 64.6608 9.89105 64.6074 10.2144 64.5004V72.7383H11.5554V63.4513L11.0451 63.2373L10.2144 63.0234C8.06651 63.802 4.44415 64.2062 2.88959 62.5122L2.83619 53.8702L1.44183 53.7632C1.44183 56.3962 1.44183 58.9995 1.41513 61.6296C1.41513 61.9803 1.46853 62.3517 1.60203 62.6994C2.72939 65.276 6.96883 65.2225 9.27694 64.7143H9.27397Z" fill="white"/>
<path id="Vector_7" d="M14.1601 72.7382C14.1601 66.4558 14.1868 60.3636 14.1868 54.0841H12.8459L12.8192 72.7382H14.1601Z" fill="white"/>
<path id="Vector_8" d="M22.6924 66.3429L20.1974 72.2033L21.4316 72.7412L23.713 67.3384H28.0058L30.5542 72.7679C30.9577 72.5807 31.3582 72.4173 31.7884 72.23L29.0768 66.4499C28.8899 66.2359 28.6466 65.9922 28.3796 65.9922H23.2264C23.0128 65.9922 22.7696 66.1527 22.6895 66.3429H22.6924Z" fill="white"/>
<path id="Vector_9" d="M56.9046 53.9772H55.5637V72.7383H56.9046V53.9772Z" fill="white"/>
<path id="Vector_10" d="M34.5801 72.3103L26.3949 53.9772H25.1607L17.4057 72.2836L18.6399 72.8215L25.1073 57.365L25.7778 55.2134L26.475 57.365L33.3459 72.8482C33.7494 72.661 34.1499 72.4976 34.5801 72.3103Z" fill="white"/>
<path id="Vector_11" d="M100.189 56.9847V71.9627L100.806 72.7413H103.571L104.295 72.0697V54.7053L103.571 54.0337H94.5019L93.8848 54.8123V66.6491C93.8848 67.8853 93.9916 69.1721 93.3745 70.2747C92.3006 71.1573 90.8528 71.1306 89.5118 71.2376V72.5808C90.3989 72.5006 91.2296 72.4738 92.087 72.2866C95.199 71.6685 95.2257 69.4693 95.2257 66.759V55.3799H102.954V71.401H101.533V56.9609L100.192 56.9877L100.189 56.9847Z" fill="white"/>
<path id="Vector_12" d="M88.4349 72.3103L80.2498 53.9772H79.0156L71.2606 72.2836L72.4947 72.8215L78.9622 57.365L79.6327 55.2134L80.3298 57.365L87.2008 72.8482C87.6042 72.661 88.0048 72.4976 88.4349 72.3103Z" fill="white"/>
<path id="Vector_13" d="M43.8362 72.7382V57.3085C43.8362 56.9578 43.5692 56.5299 43.2192 56.5299H36.725V57.8732H42.4953V72.7382H43.8362Z" fill="white"/>
<path id="Vector_14" d="M52.3418 53.9772H36.725V55.3204H52.3418V53.9772Z" fill="white"/>
<path id="Vector_15" d="M45.2336 57.3116V72.7413H46.5745V57.8762H52.3448V56.533H45.8506C45.5006 56.533 45.2336 56.9639 45.2336 57.3116Z" fill="white"/>
<path id="Vector_16" d="M69.1156 69.8111L59.993 62.8481L59.3225 62.5539L60.0197 62.123L67.0775 54.9728L66.2468 53.9237L58.1151 62.0427V63.0115L68.285 70.8601C68.552 70.5094 68.8219 70.1617 69.1156 69.8111Z" fill="white"/>
<path id="Vector_17" d="M76.5473 66.3429L74.0522 72.2033L75.2864 72.7412L77.5678 67.3384H81.8606L84.4091 72.7679C84.8125 72.5807 85.213 72.4173 85.6432 72.23L82.9316 66.4499C82.7447 66.2359 82.5015 65.9922 82.2345 65.9922H77.0813C76.8677 65.9922 76.6244 66.1527 76.5443 66.3429H76.5473Z" fill="white"/>
<path id="Vector_18" d="M80.9024 62.016L79.7306 59.3324L78.5587 62.016L77.3869 64.6965H79.7306H82.0743L80.9024 62.016Z" fill="white"/>
<path id="Vector_19" d="M27.0565 62.016L25.8846 59.3324L24.7128 62.016L23.5379 64.6965H25.8846H28.2283L27.0565 62.016Z" fill="white"/>
<path id="Vector_20" d="M105.707 74.355H0V75.6804H105.707V74.355Z" fill="white"/>
<path id="Vector_21" d="M13.4036 80.3847C13.7804 80.1351 14.0088 79.8974 14.0889 79.6715C14.172 79.4486 14.2106 79.2168 14.2106 78.982C14.2106 78.4501 14.0266 78.0281 13.6617 77.7131C13.2968 77.401 12.8429 77.2435 12.3059 77.2435C12.0805 77.2435 11.8372 77.2792 11.5702 77.3475C11.3032 77.4159 10.9739 77.6328 10.5763 77.9895L11.3151 78.8127C11.6117 78.5363 11.8995 78.3966 12.1813 78.3966C12.4187 78.3966 12.6085 78.4649 12.751 78.6016C12.8934 78.7383 12.9675 78.9256 12.9675 79.1603C12.9675 79.4159 12.8815 79.621 12.7094 79.7755C12.5373 79.9301 12.2881 80.0043 11.9559 80.0043H11.6889V81.1247H11.9559C12.5136 81.1247 12.8815 81.2139 13.0595 81.3922C13.2375 81.5705 13.3265 81.7964 13.3265 82.0698C13.3265 82.3432 13.2345 82.569 13.0536 82.7384C12.8726 82.9048 12.6323 82.9881 12.3356 82.9881C11.8906 82.9881 11.502 82.7563 11.1697 82.2926L10.2114 82.997C10.5912 83.4873 10.9413 83.8053 11.2646 83.9539C11.588 84.1025 11.9499 84.1768 12.3564 84.1768C13.0002 84.1768 13.5282 83.9925 13.9406 83.6181C14.35 83.2466 14.5577 82.7533 14.5577 82.1411C14.5577 81.3119 14.172 80.7235 13.4036 80.3818V80.3847Z" fill="white"/>
<path id="Vector_22" d="M18.8565 77.2554C18.2423 77.2554 17.6668 77.4099 17.1358 77.719C16.6018 78.0281 16.1834 78.4471 15.8808 78.9761C15.5753 79.5051 15.424 80.0846 15.424 80.7146C15.424 81.6567 15.7503 82.468 16.403 83.1515C17.0557 83.835 17.8774 84.1768 18.8654 84.1768C19.8533 84.1768 20.6098 83.8439 21.2714 83.1783C21.9329 82.5126 22.2623 81.6983 22.2623 80.7354C22.2623 79.7725 21.927 78.9404 21.2565 78.2658C20.5861 77.5912 19.785 77.2524 18.8565 77.2524V77.2554ZM20.3843 82.3194C19.966 82.7503 19.4617 82.9643 18.8654 82.9643C18.3402 82.9643 17.8745 82.7979 17.468 82.468C16.9459 82.043 16.6848 81.4665 16.6848 80.7384C16.6848 80.0846 16.8925 79.5437 17.3078 79.1217C17.7232 78.6967 18.2334 78.4857 18.8446 78.4857C19.4557 78.4857 19.9601 78.7027 20.3814 79.1366C20.8026 79.5705 21.0133 80.1024 21.0133 80.7295C21.0133 81.3565 20.8056 81.8885 20.3873 82.3194H20.3843Z" fill="white"/>
<path id="Vector_23" d="M25.2408 77.4219L22.7013 84.0134H24.0304L25.8816 79.1663L27.7032 84.0134H29.0412L26.5106 77.4219H25.2408Z" fill="white"/>
<path id="Vector_24" d="M32.9068 77.2554C32.2927 77.2554 31.7172 77.4099 31.1861 77.719C30.6521 78.0281 30.2338 78.4471 29.9312 78.9761C29.6257 79.5051 29.4743 80.0846 29.4743 80.7146C29.4743 81.6567 29.8007 82.468 30.4534 83.1515C31.106 83.835 31.9278 84.1768 32.9157 84.1768C33.9037 84.1768 34.6602 83.8439 35.3218 83.1783C35.9833 82.5126 36.3126 81.6983 36.3126 80.7354C36.3126 79.7725 35.9774 78.9404 35.3069 78.2658C34.6364 77.5912 33.8354 77.2524 32.9068 77.2524V77.2554ZM34.4347 82.3194C34.0164 82.7503 33.5121 82.9643 32.9157 82.9643C32.3906 82.9643 31.9249 82.7979 31.5184 82.468C30.9963 82.043 30.7352 81.4665 30.7352 80.7384C30.7352 80.0846 30.9429 79.5437 31.3582 79.1217C31.7736 78.6967 32.2838 78.4857 32.895 78.4857C33.5061 78.4857 34.0105 78.7027 34.4317 79.1366C34.853 79.5705 35.0636 80.1024 35.0636 80.7295C35.0636 81.3565 34.856 81.8885 34.4377 82.3194H34.4347Z" fill="white"/>
<path id="Vector_25" d="M36.8437 78.6582H38.0126V84.0134H39.2823V78.6582H40.4809V77.4219H36.8437V78.6582Z" fill="white"/>
<path id="Vector_26" d="M43.3467 77.4219L40.8102 84.0134H42.1126L42.6466 82.6553H45.3315L45.8477 84.0134H47.1501L44.6194 77.4219H43.3497H43.3467ZM43.1064 81.4309L43.9905 79.1693L44.8687 81.4309H43.1094H43.1064Z" fill="white"/>
<path id="Vector_27" d="M49.5679 77.4724C49.4374 77.4843 49.2594 77.5289 49.0399 77.6091C48.8174 77.6893 48.6215 77.8112 48.4554 77.9776C48.2863 78.144 48.1587 78.3461 48.0668 78.5839C47.9748 78.8216 47.9303 79.1039 47.9303 79.4249C47.9303 80.3313 48.3605 80.9078 49.2238 81.1545L47.7345 84.0134H49.1022L50.4253 81.3625H50.7398V84.0134H51.9917V77.4219H50.6656C50.0663 77.4427 49.7014 77.4605 49.5709 77.4724H49.5679ZM50.7368 80.1381H50.3452C49.9655 80.1381 49.6896 80.0846 49.5145 79.9776C49.3425 79.8707 49.2564 79.6805 49.2564 79.41C49.2564 79.2287 49.3009 79.0742 49.387 78.9494C49.473 78.8246 49.5857 78.7443 49.7222 78.7087C49.8587 78.67 50.0841 78.6522 50.3956 78.6522H50.7398V80.1381H50.7368Z" fill="white"/>
<path id="Vector_28" d="M59.459 77.4219H58.1922L56.0828 82.8336H55.356V84.9971H56.5694V84.0104H61.0966V84.9971H62.31V82.8336H61.5772L59.4619 77.4219H59.459ZM57.3941 82.8336L58.836 79.1693L60.2719 82.8336H57.3941Z" fill="white"/>
<path id="Vector_29" d="M66.2231 77.2554C65.609 77.2554 65.0364 77.4099 64.5024 77.719C63.9684 78.0281 63.5501 78.4471 63.2475 78.9761C62.9419 79.5051 62.7906 80.0846 62.7906 80.7146C62.7906 81.6567 63.1169 82.468 63.7696 83.1515C64.4223 83.835 65.2441 84.1768 66.232 84.1768C67.2199 84.1768 67.9764 83.8439 68.638 83.1783C69.2996 82.5126 69.6289 81.6983 69.6289 80.7354C69.6289 79.7725 69.2937 78.9404 68.6232 78.2658C67.9527 77.5912 67.1517 77.2524 66.2231 77.2524V77.2554ZM67.751 82.3194C67.3327 82.7503 66.8283 82.9643 66.232 82.9643C65.7069 82.9643 65.2411 82.7979 64.8347 82.468C64.3125 82.043 64.0515 81.4665 64.0515 80.7384C64.0515 80.0846 64.2591 79.5437 64.6745 79.1217C65.0898 78.6967 65.6001 78.4857 66.2112 78.4857C66.8224 78.4857 67.3267 78.7027 67.748 79.1366C68.1693 79.5705 68.3799 80.1024 68.3799 80.7295C68.3799 81.3565 68.1693 81.8885 67.7539 82.3194H67.751Z" fill="white"/>
<path id="Vector_30" d="M72.6045 77.4219L70.065 84.0134H71.3941L73.2483 79.1663L75.0699 84.0134H76.4049L73.8772 77.4219H72.6045Z" fill="white"/>
<path id="Vector_31" d="M78.4133 81.6835V77.4219H77.1614V84.0134H78.2502L80.7036 79.8855V84.0134H81.9556V77.4219H80.8994L78.4133 81.6835Z" fill="white"/>
<path id="Vector_32" d="M86.9219 79.9093H84.7236V77.4219H83.4538V84.0134H84.7236V81.1218H86.9219V84.0134H88.1857V77.4219H86.9219V79.9093Z" fill="white"/>
<path id="Vector_33" d="M91.6953 77.4219L89.1588 84.0134H90.4612L90.9952 82.6553H93.6801L94.1933 84.0134H95.4957L92.9651 77.4219H91.6953ZM91.455 81.4309L92.3391 79.1693L93.2173 81.4309H91.458H91.455Z" fill="white"/>
</g>
<defs>
<clipPath id="clip0_1092_3722">
<rect width="110" height="85" fill="white"/>
</clipPath>
</defs>
</svg>
